<svg width="64" height="64" viewBox="0 0 64 64" fill="none" xmlns="http://www.w3.org/2000/svg">
<g clip-path="url(#clip0_14_2)">
<path d="M50 0H14C10.287 0 6.72601 1.475 4.1005 4.1005C1.475 6.72601 0 10.287 0 14L0 50C0 53.713 1.475 57.274 4.1005 59.8995C6.72601 62.525 10.287 64 14 64H50C53.713 64 57.274 62.525 59.8995 59.8995C62.525 57.274 64 53.713 64 50V14C64 10.287 62.525 6.72601 59.8995 4.1005C57.274 1.475 53.713 0 50 0ZM60 50C60 52.6522 58.9464 55.1957 57.0711 57.0711C55.1957 58.9464 52.6522 60 50 60H14C11.3478 60 8.8043 58.9464 6.92893 57.0711C5.05357 55.1957 4 52.6522 4 50V14C4 11.3478 5.05357 8.8043 6.92893 6.92893C8.8043 5.05357 11.3478 4 14 4H50C52.6522 4 55.1957 5.05357 57.0711 6.92893C58.9464 8.8043 60 11.3478 60 14V50Z" fill="#4798DE"/>
<path d="M50 16H26V20H50V16Z" fill="#4798DE"/>
<path d="M50 30H26V34H50V30Z" fill="#4798DE"/>
<path d="M50 44H26V48H50V44Z" fill="#4798DE"/>
<path d="M18 22C20.2091 22 22 20.2091 22 18C22 15.7909 20.2091 14 18 14C15.7909 14 14 15.7909 14 18C14 20.2091 15.7909 22 18 22Z" fill="#4798DE"/>
<path d="M18 36C20.2091 36 22 34.2091 22 32C22 29.7909 20.2091 28 18 28C15.7909 28 14 29.7909 14 32C14 34.2091 15.7909 36 18 36Z" fill="#4798DE"/>
<path d="M18 50C20.2091 50 22 48.2091 22 46C22 43.7909 20.2091 42 18 42C15.7909 42 14 43.7909 14 46C14 48.2091 15.7909 50 18 50Z" fill="#4798DE"/>
</g>
<defs>
<clipPath id="clip0_14_2">
<rect width="64" height="64" fill="white"/>
</clipPath>
</defs>
</svg>
