<svg width="64" height="64" viewBox="0 0 64 64" fill="none" xmlns="http://www.w3.org/2000/svg">
<path d="M54.7195 0.000525502H14.7199C13.4923 -0.0115698 12.2741 0.185241 11.1358 0.579555C9.99759 0.97387 8.96196 1.55785 8.08891 2.29767C7.21586 3.03749 6.52275 3.91844 6.04974 4.88949C5.57672 5.86054 5.3332 6.90239 5.33328 7.95468V11.4289H2.66664C1.9594 11.4289 1.28113 11.6697 0.781042 12.0984C0.280949 12.527 0 13.1084 0 13.7146C0 14.3208 0.280949 14.9022 0.781042 15.3308C1.28113 15.7595 1.9594 16.0003 2.66664 16.0003H5.33328V29.7143H2.66664C1.9594 29.7143 1.28113 29.9551 0.781042 30.3838C0.280949 30.8124 0 31.3938 0 32C0 32.6062 0.280949 33.1876 0.781042 33.6162C1.28113 34.0449 1.9594 34.2857 2.66664 34.2857H5.33328V47.9997H2.66664C1.9594 47.9997 1.28113 48.2405 0.781042 48.6692C0.280949 49.0978 0 49.6792 0 50.2854C0 50.8916 0.280949 51.473 0.781042 51.9016C1.28113 52.3303 1.9594 52.5711 2.66664 52.5711H5.33328V56.0453C5.33328 58.1549 6.31098 60.1781 8.05131 61.6698C9.79163 63.1615 12.152 63.9995 14.6132 63.9995H54.6128C55.8404 64.0116 57.0586 63.8148 58.1968 63.4204C59.3351 63.0261 60.3707 62.4421 61.2438 61.7023C62.1168 60.9625 62.8099 60.0816 63.2829 59.1105C63.7559 58.1395 63.9995 57.0976 63.9994 56.0453V8.04611C64.0135 6.99388 63.7839 5.94972 63.3238 4.9741C62.8638 3.99848 62.1825 3.1108 61.3194 2.36247C60.4562 1.61415 59.4285 1.02006 58.2956 0.614625C57.1627 0.209186 55.9472 0.000455986 54.7195 0.000525502ZM58.6661 56.0453C58.6591 56.9406 58.2411 57.7976 57.5024 58.4307C56.7638 59.0638 55.764 59.4221 54.7195 59.4281H14.7199C14.1936 59.4372 13.6705 59.3566 13.1809 59.191C12.6914 59.0253 12.245 58.7779 11.8679 58.4632C11.4908 58.1485 11.1904 57.7727 10.9842 57.3576C10.778 56.9425 10.67 56.4965 10.6666 56.0453V52.5711C11.3738 52.5711 12.0521 52.3303 12.5522 51.9016C13.0523 51.473 13.3332 50.8916 13.3332 50.2854C13.3332 49.6792 13.0523 49.0978 12.5522 48.6692C12.0521 48.2405 11.3738 47.9997 10.6666 47.9997V34.2857C11.3738 34.2857 12.0521 34.0449 12.5522 33.6162C13.0523 33.1876 13.3332 32.6062 13.3332 32C13.3332 31.3938 13.0523 30.8124 12.5522 30.3838C12.0521 29.9551 11.3738 29.7143 10.6666 29.7143V16.0003C11.3738 16.0003 12.0521 15.7595 12.5522 15.3308C13.0523 14.9022 13.3332 14.3208 13.3332 13.7146C13.3332 13.1084 13.0523 12.527 12.5522 12.0984C12.0521 11.6697 11.3738 11.4289 10.6666 11.4289V7.95468C10.6736 7.05936 11.0916 6.2024 11.8302 5.5693C12.5689 4.93619 13.5686 4.57787 14.6132 4.57188H54.6128C55.139 4.56279 55.6621 4.6434 56.1517 4.80905C56.6413 4.97469 57.0876 5.22206 57.4647 5.53679C57.8418 5.85152 58.1422 6.22733 58.3485 6.64241C58.5547 7.05748 58.6627 7.50354 58.6661 7.95468V56.0453Z" fill="#4798DE"/>
<path d="M42.6663 31.0857C44.3698 29.4492 45.3179 27.3361 45.3329 25.143C45.3329 22.7182 44.2091 20.3927 42.2087 18.6781C40.2084 16.9635 37.4953 16.0002 34.6663 16.0002C31.8374 16.0002 29.1243 16.9635 27.1239 18.6781C25.1236 20.3927 23.9998 22.7182 23.9998 25.143C24.0148 27.3361 24.9629 29.4492 26.6664 31.0857C24.2664 32.1297 22.2493 33.7216 20.8377 35.6857C19.4261 37.6499 18.6747 39.91 18.6665 42.217V47.9997C18.6665 48.6059 18.9475 49.1873 19.4475 49.6159C19.9476 50.0446 20.6259 50.2854 21.3331 50.2854H47.9996C48.7068 50.2854 49.3851 50.0446 49.8852 49.6159C50.3852 49.1873 50.6662 48.6059 50.6662 47.9997V42.217C50.658 39.91 49.9066 37.6499 48.495 35.6857C47.0834 33.7216 45.0663 32.1297 42.6663 31.0857ZM34.6663 20.5716C35.7212 20.5716 36.7523 20.8397 37.6294 21.342C38.5064 21.8443 39.19 22.5583 39.5937 23.3936C39.9973 24.2289 40.1029 25.148 39.8972 26.0348C39.6914 26.9215 39.1834 27.7361 38.4375 28.3754C37.6917 29.0147 36.7414 29.4501 35.7068 29.6265C34.6723 29.8029 33.5999 29.7123 32.6254 29.3663C31.6509 29.0203 30.8179 28.4344 30.2319 27.6827C29.6459 26.9309 29.3331 26.0471 29.3331 25.143C29.3331 23.9306 29.895 22.7678 30.8952 21.9105C31.8953 21.0532 33.2519 20.5716 34.6663 20.5716ZM45.3329 45.714H23.9998V42.217C24.0068 40.1153 24.984 38.1014 26.7178 36.6153C28.4516 35.1292 30.8011 34.2917 33.253 34.2857H36.0797C38.5316 34.2917 40.8811 35.1292 42.6149 36.6153C44.3487 38.1014 45.3259 40.1153 45.3329 42.217V45.714Z" fill="#4798DE"/>
</svg>
