<svg width="64" height="64" viewBox="0 0 64 64" fill="none" xmlns="http://www.w3.org/2000/svg">
<path d="M1.80876 64H62.1904C62.6703 64 63.1306 63.8226 63.47 63.5068C63.8093 63.1911 64 62.7628 64 62.3162V22.5768C64.0001 22.3142 63.9342 22.0553 63.8075 21.8207C63.6808 21.586 63.4969 21.3823 63.2705 21.2256L33.0797 0.332916C32.7677 0.116752 32.389 0 32 0C31.611 0 31.2323 0.116752 30.9203 0.332916L0.729503 21.2304C0.503062 21.387 0.319155 21.5908 0.192485 21.8254C0.0658151 22.0601 -0.000103188 22.319 1.21245e-07 22.5815V62.3202C0.00113472 62.766 0.192173 63.1931 0.531234 63.508C0.870294 63.8228 1.32971 63.9998 1.80876 64ZM39.0246 60.6325H24.9703V41.0463H39.0246V60.6325ZM3.62094 23.423L31.9996 3.77861L60.3808 23.423V60.6325H42.6438V39.3625C42.6438 38.916 42.4532 38.4877 42.1138 38.1719C41.7744 37.8562 41.3141 37.6788 40.8342 37.6788H23.1615C22.6816 37.6788 22.2213 37.8562 21.8819 38.1719C21.5426 38.4877 21.3519 38.916 21.3519 39.3625V60.6325H3.61837L3.62094 23.423Z" fill="#4798DE"/>
</svg>
