<svg width="64" height="64" viewBox="0 0 64 64" fill="none" xmlns="http://www.w3.org/2000/svg">
<path d="M56.5008 12H9.49916C9.10156 12 8.72024 12.2107 8.43909 12.5858C8.15795 12.9609 8 13.4696 8 14C8 14.5304 8.15795 15.0391 8.43909 15.4142C8.72024 15.7893 9.10156 16 9.49916 16H56.5008C56.8984 16 57.2798 15.7893 57.5609 15.4142C57.8421 15.0391 58 14.5304 58 14C58 13.4696 57.8421 12.9609 57.5609 12.5858C57.2798 12.2107 56.8984 12 56.5008 12Z" fill="#4798DE"/>
<path d="M56.5008 30H9.49916C9.10156 30 8.72024 30.2107 8.43909 30.5858C8.15795 30.9609 8 31.4696 8 32C8 32.5304 8.15795 33.0391 8.43909 33.4142C8.72024 33.7893 9.10156 34 9.49916 34H56.5008C56.8984 34 57.2798 33.7893 57.5609 33.4142C57.8421 33.0391 58 32.5304 58 32C58 31.4696 57.8421 30.9609 57.5609 30.5858C57.2798 30.2107 56.8984 30 56.5008 30Z" fill="#4798DE"/>
<path d="M56.5008 48H9.49916C9.10156 48 8.72024 48.2107 8.43909 48.5858C8.15795 48.9609 8 49.4696 8 50C8 50.5304 8.15795 51.0391 8.43909 51.4142C8.72024 51.7893 9.10156 52 9.49916 52H56.5008C56.8984 52 57.2798 51.7893 57.5609 51.4142C57.8421 51.0391 58 50.5304 58 50C58 49.4696 57.8421 48.9609 57.5609 48.5858C57.2798 48.2107 56.8984 48 56.5008 48Z" fill="#4798DE"/>
</svg>
