<?xml version="1.0" encoding="utf-8"?>
<!-- Generator: Adobe Illustrator 16.0.0, SVG Export Plug-In . SVG Version: 6.00 Build 0)  -->
<!DOCTYPE svg PUBLIC "-//W3C//DTD SVG 1.1//EN" "http://www.w3.org/Graphics/SVG/1.1/DTD/svg11.dtd">
<svg version="1.1" id="Layer_1" xmlns="http://www.w3.org/2000/svg" xmlns:xlink="http://www.w3.org/1999/xlink" x="0px" y="0px"
	 width="128px" height="128px" viewBox="0 0 128 128" enable-background="new 0 0 128 128" xml:space="preserve">
<g>
	<g>
		<path fill="#282D33" d="M82.946,12.069h-4V4.345c0-0.19-0.17-0.345-0.379-0.345H49.435c-0.209,0-0.379,0.155-0.379,0.345v7.724h-4
			V4.345C45.056,1.949,47.021,0,49.435,0h29.133c2.414,0,4.379,1.949,4.379,4.345V12.069z"/>
	</g>
	<g>
		<path fill="#282D33" d="M105.451,128H22.549c-4.318,0-7.831-3.476-7.831-7.748V36.921h4v83.331c0,2.066,1.719,3.748,3.831,3.748
			h82.902c2.111,0,3.829-1.682,3.829-3.748V36.921h4v83.331C113.28,124.524,109.769,128,105.451,128z"/>
	</g>
	<g>
		<path fill="#282D33" d="M116.724,29.34H11.276l0.004-9.612c0-4.271,3.349-7.747,7.465-7.747h90.516
			c4.115,0,7.463,3.476,7.463,7.748V29.34z M15.278,25.34h97.445v-5.611c0-2.067-1.554-3.748-3.463-3.748H18.745
			c-1.91,0-3.465,1.681-3.465,3.748L15.278,25.34z"/>
	</g>
	<g>
		<g>
			<rect x="31.132" y="36.921" fill="#282D33" width="4" height="77.972"/>
		</g>
		<g>
			<rect x="46.233" y="36.921" fill="#282D33" width="4" height="77.972"/>
		</g>
		<g>
			<rect x="61.336" y="36.921" fill="#282D33" width="4" height="77.972"/>
		</g>
		<g>
			<rect x="76.438" y="36.921" fill="#282D33" width="4" height="77.972"/>
		</g>
		<g>
			<rect x="91.54" y="36.921" fill="#282D33" width="4" height="77.972"/>
		</g>
	</g>
</g>
</svg>
